# xmcd
#
# Track frame offsets:
#	150
#	12317
#	21975
#	32306
#	44625
#	57630
#	68758
#	77582
#	92966
#	104381
#	118642
#	132890
#	144018
#
# Disc length: 2063 seconds
#
# Revision: 1
# Processed by: cddbd v1.5.2PL0 Copyright (c) Steve Scherf et al.
# Submitted via: audiograbber 1.83.01
#
DISCID=aa080d0d
DTITLE=Johnny Horsepower - Cash Cover With Attitude
DYEAR=2014
DGENRE=Country
TTITLE0=I Walk The Line
TTITLE1=All Over Again
TTITLE2=I Got Stripes
TTITLE3=I Still Miss Someone
TTITLE4=It Ain't Me BabeCry Cry Cry
TTITLE5=Country Boy
TTITLE6=I Heard That
TTITLE7=Lonesome Whistle Blow
TTITLE8=Big River
TTITLE9=Jackson
TTITLE10=Wreck Of The Old 97
TTITLE11=I'm Free From The Chain Gang Now
TTITLE12=Daddy Sang Bass
EXTD=
EXTT0=
EXTT1=
EXTT2=
EXTT3=
EXTT4=
EXTT5=
EXTT6=
EXTT7=
EXTT8=
EXTT9=
EXTT10=
EXTT11=
EXTT12=
PLAYORDER=
